<svg width="28" height="28" viewBox="0 0 28 28" fill="none" xmlns="http://www.w3.org/2000/svg">
<path d="M26.8631 1.36313C26.8525 1.31183 26.8274 1.26464 26.7909 1.22711C26.7544 1.18957 26.7079 1.16326 26.6569 1.15125C23.2581 0.32 15.4069 3.28187 11.1488 7.53687C10.3899 8.28954 9.69787 9.10678 9.08062 9.97937C7.76812 9.86062 6.45563 9.96062 5.33813 10.4481C2.1825 11.8356 1.26437 15.4594 1.00812 17.015C0.994241 17.1002 1.00017 17.1875 1.02546 17.2701C1.05074 17.3527 1.0947 17.4283 1.15393 17.4912C1.21316 17.554 1.28606 17.6024 1.36699 17.6326C1.44793 17.6627 1.53471 17.6738 1.62062 17.665L6.6875 17.1087C6.69101 17.4909 6.71395 17.8727 6.75625 18.2525C6.78269 18.515 6.89983 18.7601 7.0875 18.9456L9.04937 20.9075C9.23502 21.0953 9.48037 21.2124 9.74312 21.2388C10.1207 21.2809 10.5001 21.3038 10.88 21.3075L10.3244 26.37C10.3157 26.4558 10.3269 26.5425 10.357 26.6232C10.3872 26.704 10.4355 26.7768 10.4983 26.836C10.561 26.8951 10.6366 26.939 10.719 26.9643C10.8015 26.9896 10.8886 26.9956 10.9738 26.9819C12.53 26.7319 16.1612 25.8138 17.5406 22.6588C18.0281 21.54 18.1281 20.2344 18.0156 18.9281C18.8908 18.3114 19.7104 17.6194 20.465 16.86C24.7387 12.61 27.6819 4.93125 26.8631 1.36313ZM16.6663 11.3544C16.293 10.9812 16.0387 10.5056 15.9357 9.98794C15.8327 9.47024 15.8855 8.93361 16.0875 8.44592C16.2894 7.95824 16.6315 7.5414 17.0704 7.24813C17.5093 6.95485 18.0253 6.79832 18.5531 6.79832C19.081 6.79832 19.597 6.95485 20.0359 7.24813C20.4748 7.5414 20.8168 7.95824 21.0188 8.44592C21.2208 8.93361 21.2736 9.47024 21.1706 9.98794C21.0675 10.5056 20.8133 10.9812 20.44 11.3544C20.1924 11.6025 19.8983 11.7994 19.5745 11.9337C19.2507 12.068 18.9037 12.1371 18.5531 12.1371C18.2026 12.1371 17.8555 12.068 17.5317 11.9337C17.208 11.7994 16.9138 11.6025 16.6663 11.3544V11.3544Z" stroke="red" stroke-width="2" stroke-linecap="round" stroke-linejoin="round"/>
<g transform="translate(1, 19)">
<path d="M3.8525 1C3.22945 1.07648 2.6498 1.35893 2.20563 1.8025C1.10438 2.9075 1 7 1 7C1 7 5.095 6.89563 6.19687 5.79313C6.64224 5.34965 6.92517 4.76903 7 4.145" stroke="red" stroke-width="2" stroke-linecap="round" stroke-linejoin="round"/>
</g>
</svg>
